# xmcd
#
# Track frame offsets:
#	150
#	14932
#	31006
#	43749
#	62788
#	76992
#	93201
#	110109
#	125486
#
# Disc length: 1917 seconds
# Revision: 0
# Processed by: cddbd v1.5.2PL0 Copyright (c) Steve Scherf et al.
# Submitted via: dBpowerAMP V12.0
#
DISCID=75077b09
DTITLE=Pierre Souchon - Piteur's friends
DYEAR=2010
DGENRE=Chanson
TTITLE0=Piteur's friends
TTITLE1=L.A.O.T.
TTITLE2=Il et elle
TTITLE3=Fil de fer
TTITLE4=Clair de lune
TTITLE5=Bonhomme helium
TTITLE6=C'est quand demain ?
TTITLE7=Pour oublier
TTITLE8=Mon coeur metronome
EXTD=
EXTT0=
EXTT1=
EXTT2=
EXTT3=
EXTT4=
EXTT5=
EXTT6=
EXTT7=
EXTT8=
PLAYORDER=
